<?xml version="1.0" encoding="UTF-8" standalone="no"?><svg xmlns="http://www.w3.org/2000/svg" xmlns:xlink="http://www.w3.org/1999/xlink" fill="#000000" height="560.4" preserveAspectRatio="xMidYMid meet" version="1" viewBox="0.0 0.0 565.0 560.4" width="565" zoomAndPan="magnify"><g id="change1_1"><path d="M565,349.47998l-152.56,48.80005l-25.71002-10.96002l-22.32001,3.35999v-22.62l-11.62-8.56l-4.58997-10.40002 h-14.36005l13.14001,6.42004l3.37,49.52997l-11.01001,38.22003v3.15997v4.78003V460.69l-6.41998,24.77002L322.87,492.07001h-0.01001 L295.31,560.40002l-15.45856-29.40887l-6.09235-1.96527l-23.38855-34.3949v-9.63062l-17.75702-31.18469V441.125l0.00317,0.00531 l-25.34668-48.22034l-35.4693,10.19385l-7.64673,7.45068l-39.43945,10.3949h-8.25482l-27.51593,15.59241l-67.28577,9.71301 l-0.01801,0.00519l0.00171-0.00281l-0.00604,0.00085l0.00696-0.00244l88.14734-147.83563l-46.06909-28.27313l-18.57324-28.89166 l-17.88538-11.00641l-15.47015-28.53235L0,190.08002c0,0,150.87,17.90997,147.77002-4.23004 c-1.00232-7.15515-6.18726-27.77374-12.74249-52.39349l0,0l-12.83533-29.09302c0,0-4.69403-35.00348-9.43207-37.14655 c-4.73792-2.14301-0.00012-14.80322,0-14.80359c-6.44348-22.9696-11.18011-39.55334-11.18011-39.55334L257.44,135.27002L328.77997,0 l5.43597,24.00153l-0.00012-0.00055l5.35217,7.44525l8.25482,28.20386v15.13373l4.81525,4.12738l16.50958,51.59235 l-5.74597,22.36267l4.11835,18.18378l165.97998-49.63l-59.82861,59.66022c-0.80933,4.74884-2.52283,10.20636-6.1543,12.02209 c-6.87903,3.43951-11.00641,17.19745-11.00641,17.19745l-19.94904,20.63696c0,0-7.56689,5.50317-14.44586,8.25476 s-18.57324,19.26117-18.57324,19.26117l-13.07001,5.59216l-20.36255,20.30518L565,349.47998z M365.17828,402.83725 l-14.70895,38.17606l-3.92242,14.03058l13.23813,1.63144v-22.84039l21.08282-28.71365l-3.92242-7.17844L365.17828,402.83725z" fill="#feb14c"/></g></svg>